<svg version="1" xmlns="http://www.w3.org/2000/svg" width="933.333" height="933.333" viewBox="0 0 700.000000 700.000000"><path d="M200.7 87.6c-.1.1-2.6.4-5.4.8-10.8 1.3-23.2 7.5-31.8 16.1-6.5 6.4-10.8 13.3-14.6 23.5l-2.4 6.5-.3 238.7c-.1 131.4 0 238.8.3 238.8.5 0 153.6-65.5 165-70.5 1.7-.8 11-4.8 20.8-8.9l17.8-7.6 35.2 15.1c19.4 8.3 36.6 15.6 38.2 16.4 1.7.7 12.7 5.4 24.5 10.5s23.3 10 25.5 11c2.2 1 8.5 3.7 14 6s11.8 5 14 6c2.2 1 8.5 3.6 14 6 5.5 2.3 11.4 4.8 13 5.5 5.8 2.5 10.1 4.3 17.3 7.5 4.1 1.7 7.6 2.9 7.8 2.7.8-.7.6-469.6-.1-474.2-3.6-23.7-21.4-42.9-45.1-48.6-3.7-.9-42.8-1.2-156.2-1.3-83.2-.1-151.4-.1-151.5 0z"/></svg>